<svg width="24" height="24" viewBox="0 0 24 24" fill="none" xmlns="http://www.w3.org/2000/svg">
<path d="M21.3206 3.73685C21.3045 3.46162 21.188 3.20188 20.993 3.00694C20.7981 2.812 20.5383 2.69542 20.2631 2.67935C16.5506 2.46091 13.2703 2.89872 10.5131 3.97966C7.87498 5.01372 5.84154 6.61685 4.63029 8.6156C2.97841 11.3447 2.97466 14.6578 4.5881 17.8209L2.95404 19.455C2.84939 19.5596 2.76638 19.6839 2.70975 19.8206C2.65311 19.9573 2.62396 20.1039 2.62396 20.2519C2.62396 20.3998 2.65311 20.5464 2.70975 20.6831C2.76638 20.8198 2.84939 20.9441 2.95404 21.0487C3.16538 21.2601 3.45203 21.3788 3.75091 21.3788C3.89891 21.3788 4.04545 21.3497 4.18218 21.293C4.31891 21.2364 4.44314 21.1534 4.54779 21.0487L6.18185 19.4147C7.75123 20.2153 9.3581 20.6193 10.9115 20.6193C12.4898 20.6243 14.0388 20.1927 15.3872 19.3725C17.3859 18.1612 18.989 16.1268 20.0231 13.4897C21.1012 10.7306 21.539 7.44935 21.3206 3.73685ZM14.2181 17.445C12.3347 18.5859 10.125 18.6722 7.86935 17.7187L15.795 9.7931C15.8996 9.68845 15.9826 9.56422 16.0393 9.42749C16.0959 9.29076 16.1251 9.14422 16.1251 8.99622C16.1251 8.84823 16.0959 8.70169 16.0393 8.56496C15.9826 8.42823 15.8996 8.304 15.795 8.19935C15.6903 8.0947 15.5661 8.01169 15.4294 7.95506C15.2926 7.89842 15.1461 7.86927 14.9981 7.86927C14.8501 7.86927 14.7036 7.89842 14.5668 7.95506C14.4301 8.01169 14.3059 8.0947 14.2012 8.19935L6.28123 16.1306C5.3306 13.8806 5.41685 11.6653 6.56248 9.78185C8.52279 6.54466 13.1756 4.7456 19.125 4.88341C19.2544 10.8309 17.4553 15.4847 14.2181 17.445Z" fill="black"/>
</svg>
