<svg width="20" height="21" viewBox="0 0 20 21" fill="none" xmlns="http://www.w3.org/2000/svg">
<path d="M16.0306 11.0306L11.5306 15.5306C11.3897 15.6715 11.1986 15.7507 10.9994 15.7507C10.8001 15.7507 10.609 15.6715 10.4681 15.5306C10.3272 15.3897 10.2481 15.1986 10.2481 14.9994C10.2481 14.8001 10.3272 14.609 10.4681 14.4681L13.6875 11.25H4.5C4.30109 11.25 4.11032 11.171 3.96967 11.0303C3.82902 10.8897 3.75 10.6989 3.75 10.5C3.75 10.3011 3.82902 10.1103 3.96967 9.96966C4.11032 9.829 4.30109 9.74999 4.5 9.74999H13.6875L10.4694 6.52999C10.3285 6.38909 10.2493 6.19799 10.2493 5.99874C10.2493 5.79948 10.3285 5.60838 10.4694 5.46749C10.6103 5.32659 10.8014 5.24744 11.0006 5.24744C11.1999 5.24744 11.391 5.32659 11.5319 5.46749L16.0319 9.96749C16.1018 10.0373 16.1573 10.1202 16.1951 10.2114C16.2329 10.3027 16.2523 10.4005 16.2522 10.4993C16.252 10.5981 16.2324 10.6959 16.1944 10.7871C16.1564 10.8782 16.1007 10.961 16.0306 11.0306Z" fill="black"/>
</svg>
