<svg width="25" height="24" viewBox="0 0 25 24" fill="none" xmlns="http://www.w3.org/2000/svg">
<path d="M18.131 7.13598C18.014 7.07698 17.901 7.01198 17.79 6.94098C17.47 6.73298 17.176 6.48798 16.915 6.21098C16.263 5.47798 16.019 4.73398 15.929 4.21298H15.933C15.858 3.77998 15.889 3.50098 15.894 3.50098H12.921V14.79C12.921 14.942 12.921 15.092 12.915 15.24C12.915 15.258 12.913 15.275 12.912 15.295C12.912 15.303 12.912 15.311 12.91 15.32V15.326C12.846 16.149 12.37 16.886 11.64 17.294C11.265 17.503 10.842 17.613 10.41 17.613C9.026 17.613 7.903 16.503 7.903 15.134C7.903 13.764 9.026 12.655 10.41 12.655C10.673 12.654 10.933 12.695 11.182 12.775L11.186 9.80198C9.656 9.60798 8.114 10.051 6.932 11.024C6.419 11.462 5.989 11.983 5.659 12.566C5.533 12.779 5.06 13.632 5.003 15.018C4.967 15.805 5.207 16.62 5.322 16.956V16.964C5.394 17.162 5.673 17.839 6.129 18.409C6.496 18.867 6.93 19.269 7.416 19.602V19.595L7.423 19.602C8.862 20.563 10.458 20.5 10.458 20.5C10.734 20.489 11.659 20.5 12.71 20.011C13.875 19.468 14.538 18.661 14.538 18.661C14.962 18.178 15.299 17.628 15.535 17.034C15.804 16.34 15.894 15.507 15.894 15.174V9.18398C15.93 9.20598 16.41 9.51798 16.41 9.51798C16.41 9.51798 17.102 9.95298 18.181 10.237C18.956 10.439 19.999 10.481 19.999 10.481V7.58298C19.633 7.62198 18.891 7.50798 18.131 7.13598Z" fill="#808080"/>
</svg>
