<svg width="21" height="18" viewBox="0 0 21 18" fill="none" xmlns="http://www.w3.org/2000/svg">
<path d="M20.4684 3.5175C20.3801 3.17189 20.2109 2.85224 19.9747 2.58491C19.7385 2.31758 19.4421 2.11024 19.11 1.98C15.8962 0.738753 10.7812 0.750004 10.5 0.750004C10.2188 0.750004 5.10375 0.738753 1.89 1.98C1.5579 2.11024 1.26153 2.31758 1.02534 2.58491C0.789145 2.85224 0.619899 3.17189 0.531563 3.5175C0.28875 4.45313 0 6.16313 0 9C0 11.8369 0.28875 13.5469 0.531563 14.4825C0.619767 14.8283 0.788954 15.1481 1.02515 15.4156C1.26136 15.6831 1.5578 15.8906 1.89 16.0209C4.96875 17.2088 9.7875 17.25 10.4381 17.25H10.5619C11.2125 17.25 16.0341 17.2088 19.11 16.0209C19.4422 15.8906 19.7386 15.6831 19.9748 15.4156C20.211 15.1481 20.3802 14.8283 20.4684 14.4825C20.7113 13.545 21 11.8369 21 9C21 6.16313 20.7113 4.45313 20.4684 3.5175ZM13.7081 9.31219L9.20813 12.3122C9.15164 12.3499 9.08597 12.3715 9.01815 12.3748C8.95032 12.3781 8.88287 12.3629 8.82301 12.3309C8.76314 12.2988 8.7131 12.2511 8.67822 12.1928C8.64335 12.1346 8.62496 12.0679 8.625 12V6C8.62496 5.9321 8.64335 5.86545 8.67822 5.80718C8.7131 5.74892 8.76314 5.70121 8.82301 5.66916C8.88287 5.63711 8.95032 5.62191 9.01815 5.6252C9.08597 5.62849 9.15164 5.65013 9.20813 5.68782L13.7081 8.68782C13.7596 8.72205 13.8017 8.76846 13.8309 8.82292C13.8601 8.87739 13.8754 8.93822 13.8754 9C13.8754 9.06179 13.8601 9.12262 13.8309 9.17708C13.8017 9.23155 13.7596 9.27796 13.7081 9.31219Z" fill="#808080"/>
</svg>
